<svg width="20" height="20" viewBox="0 0 3 14" fill="none" xmlns="http://www.w3.org/2000/svg">
    <path fill-rule="evenodd" clip-rule="evenodd" d="M1.33675 0.167969C1.64705 0.167969 1.94465 0.270842 2.16406 0.453958C2.38348 0.637074 2.50675 0.885432 2.50675 1.1444V9.93225C2.50675 10.1912 2.38348 10.4396 2.16406 10.6227C1.94465 10.8058 1.64705 10.9087 1.33675 10.9087C1.02644 10.9087 0.728851 10.8058 0.509433 10.6227C0.290016 10.4396 0.166748 10.1912 0.166748 9.93225V1.1444C0.166748 0.885432 0.290016 0.637074 0.509433 0.453958C0.728851 0.270842 1.02644 0.167969 1.33675 0.167969ZM1.33675 13.838C1.64705 13.838 1.94465 13.7351 2.16406 13.552C2.38348 13.3689 2.50675 13.1205 2.50675 12.8615C2.50675 12.6026 2.38348 12.3542 2.16406 12.1711C1.94465 11.988 1.64705 11.8851 1.33675 11.8851C1.02644 11.8851 0.728851 11.988 0.509433 12.1711C0.290016 12.3542 0.166748 12.6026 0.166748 12.8615C0.166748 13.1205 0.290016 13.3689 0.509433 13.552C0.728851 13.7351 1.02644 13.838 1.33675 13.838Z" fill="white"/>
    </svg>
    