<svg width="20" height="20" viewBox="0 0 17 22" fill="none" xmlns="http://www.w3.org/2000/svg">
    <path d="M1.60505 21.57C1.29563 21.57 0.998886 21.4471 0.780094 21.2283C0.561302 21.0095 0.438386 20.7128 0.438386 20.4033L0.263385 3.3C0.249337 2.95274 0.304082 2.60612 0.424472 2.28009C0.544862 1.95406 0.728521 1.65504 0.964886 1.40025C1.20125 1.14545 1.48566 0.939896 1.80175 0.795409C2.11784 0.650922 2.45938 0.570352 2.80672 0.558333L13.9951 0.5C14.3429 0.506075 14.686 0.580608 15.005 0.719342C15.324 0.858077 15.6126 1.05829 15.8542 1.30856C16.0958 1.55882 16.2857 1.85423 16.4131 2.17791C16.5405 2.50159 16.6029 2.8472 16.5967 3.195L16.7601 20.2983C16.7621 20.5028 16.7103 20.7041 16.61 20.8823C16.5096 21.0604 16.3643 21.2091 16.1884 21.3133C16.011 21.4157 15.8098 21.4696 15.6051 21.4696C15.4003 21.4696 15.1991 21.4157 15.0217 21.3133L8.37172 17.6267L2.20005 21.395C2.0173 21.4971 1.81397 21.5569 1.60505 21.57ZM8.32505 15.095C8.52783 15.0949 8.72773 15.1429 8.90839 15.235L14.4034 18.28L14.2634 3.17167C14.2634 2.93833 14.1117 2.775 14.0184 2.78667L2.81839 2.89167C2.72505 2.89167 2.59672 3.04333 2.59672 3.27667L2.73672 18.3267L7.73005 15.2583C7.9114 15.1545 8.1161 15.0983 8.32505 15.095Z" fill="#FBBB00"/>
    </svg>
    