<svg width="20" height="20" viewBox="0 0 20 17" fill="none" xmlns="http://www.w3.org/2000/svg">
    <path d="M18.75 3.8749V2.9999C17.258 1.49807 15.2593 0.607032 13.145 0.50115C12.5593 0.431164 11.9654 0.508231 11.4169 0.725383C10.8685 0.942536 10.3828 1.29293 10.0037 1.7449C9.61248 1.30748 9.12461 0.967319 8.57889 0.751417C8.03317 0.535516 7.44463 0.449825 6.86 0.50115C4.74394 0.605805 2.74324 1.49694 1.25 2.9999V3.8749L0 4.2499V16.7499L8.375 14.9999L8.75 15.4999H11.25L11.625 14.9999L20 16.7499V4.2499L18.75 3.8749ZM6.85 12.1374C5.31492 12.1783 3.80866 12.5637 2.4425 13.2649L2.5 3.5249C3.64388 2.44492 5.13942 1.81456 6.71125 1.7499C7.67042 1.80929 8.59889 2.11076 9.41 2.62615L9.38625 12.4624C8.55879 12.222 7.69878 12.1128 6.8375 12.1386L6.85 12.1374ZM17.5 13.2374C16.1551 12.5522 14.6739 12.1764 13.165 12.1374L12.9638 12.1349C12.1388 12.1349 11.3425 12.2549 10.59 12.4774L10.6488 2.5999C11.4383 2.10426 12.3386 1.8126 13.2687 1.75115C14.8483 1.81142 16.3523 2.44304 17.5013 3.52865L17.4975 13.2386L17.5 13.2374Z" fill="#18C07A"/>
    </svg>
    