<svg width="20" height="20" viewBox="0 0 18 18" fill="none" xmlns="http://www.w3.org/2000/svg">
    <path d="M8.99996 11.5001C9.23607 11.5001 9.43413 11.4201 9.59413 11.2601C9.75413 11.1001 9.83385 10.9023 9.83329 10.6667C9.83274 10.4312 9.75274 10.2334 9.59329 10.0734C9.43385 9.91341 9.23607 9.83342 8.99996 9.83342C8.76385 9.83342 8.56607 9.91341 8.40663 10.0734C8.24718 10.2334 8.16718 10.4312 8.16663 10.6667C8.16607 10.9023 8.24607 11.1004 8.40663 11.2609C8.56718 11.4215 8.76496 11.5012 8.99996 11.5001ZM8.16663 8.16675H9.83329V3.16675H8.16663V8.16675ZM0.666626 17.3334V2.33341C0.666626 1.87508 0.829959 1.48286 1.15663 1.15675C1.48329 0.830637 1.87551 0.667304 2.33329 0.666748H15.6666C16.125 0.666748 16.5175 0.830081 16.8441 1.15675C17.1708 1.48341 17.3339 1.87564 17.3333 2.33341V12.3334C17.3333 12.7917 17.1702 13.1842 16.8441 13.5109C16.518 13.8376 16.1255 14.0006 15.6666 14.0001H3.99996L0.666626 17.3334ZM3.29163 12.3334H15.6666V2.33341H2.33329V13.2709L3.29163 12.3334Z" fill="#FBBB00"/>
    </svg>
    