<svg width="20" height="20" viewBox="0 0 10 17" fill="none" xmlns="http://www.w3.org/2000/svg">
    <path d="M3.83337 11.3333C3.83337 10.2083 3.93421 9.39944 4.13587 8.90667C4.33754 8.41389 4.76448 7.87556 5.41671 7.29167C5.98615 6.79167 6.42032 6.35778 6.71921 5.99C7.0181 5.62222 7.16726 5.20194 7.16671 4.72917C7.16671 4.15972 6.97587 3.6875 6.59421 3.3125C6.21254 2.9375 5.68115 2.75 5.00004 2.75C4.29171 2.75 3.75365 2.96528 3.38587 3.39583C3.0181 3.82639 2.75754 4.26389 2.60421 4.70833L0.458374 3.79167C0.750041 2.90278 1.28476 2.13194 2.06254 1.47917C2.84032 0.826389 3.81948 0.5 5.00004 0.5C6.45837 0.5 7.58004 0.906389 8.36504 1.71917C9.15004 2.53194 9.54226 3.5075 9.54171 4.64583C9.54171 5.34028 9.39254 5.93417 9.09421 6.4275C8.79587 6.92083 8.32698 7.47972 7.68754 8.10417C7.00698 8.75694 6.59393 9.25361 6.44837 9.59417C6.30282 9.93472 6.22976 10.5144 6.22921 11.3333H3.83337ZM5.00004 16.3333C4.54171 16.3333 4.14948 16.1703 3.82337 15.8442C3.49726 15.5181 3.33393 15.1256 3.33337 14.6667C3.33282 14.2078 3.49615 13.8156 3.82337 13.49C4.1506 13.1644 4.54282 13.0011 5.00004 13C5.45726 12.9989 5.84976 13.1622 6.17754 13.49C6.50532 13.8178 6.66837 14.21 6.66671 14.6667C6.66504 15.1233 6.50198 15.5158 6.17754 15.8442C5.8531 16.1725 5.4606 16.3356 5.00004 16.3333Z" fill="#518EF8"/>
    </svg>
    