<svg width="20" height="20" viewBox="0 0 16 16" fill="none" xmlns="http://www.w3.org/2000/svg">
    <path d="M8 12.1667C8.23611 12.1667 8.43417 12.0867 8.59417 11.9267C8.75417 11.7667 8.83389 11.5689 8.83333 11.3333C8.83278 11.0978 8.75278 10.9 8.59333 10.74C8.43389 10.58 8.23611 10.5 8 10.5C7.76389 10.5 7.56611 10.58 7.40667 10.74C7.24722 10.9 7.16722 11.0978 7.16667 11.3333C7.16611 11.5689 7.24611 11.7669 7.40667 11.9275C7.56722 12.0881 7.765 12.1678 8 12.1667ZM7.16667 8.83333H8.83333V3.83333H7.16667V8.83333ZM4.875 15.5L0.5 11.125V4.875L4.875 0.5H11.125L15.5 4.875V11.125L11.125 15.5H4.875ZM5.58333 13.8333H10.4167L13.8333 10.4167V5.58333L10.4167 2.16667H5.58333L2.16667 5.58333V10.4167L5.58333 13.8333Z" fill="#FF0000"/>
    </svg>
    