<svg width="20" height="20" viewBox="0 0 16 16" fill="none" xmlns="http://www.w3.org/2000/svg">
    <path d="M9.708 12.2498L11.3332 15.4998L12.9832 13.8078L15.5 13.833L13.1584 9.18305V9.17505M6.292 12.2498L4.6668 15.4998L3.0168 13.8078L0.5 13.833L2.8416 9.18305V9.17505" stroke="#F14336" stroke-width="0.8" stroke-linecap="round" stroke-linejoin="round"/>
    <path d="M14.0668 6.3331C14.0668 6.9667 13.5084 7.4999 13.3248 8.0667C13.1416 8.6331 13.2668 9.4083 12.9084 9.8999C12.55 10.3915 11.7832 10.4999 11.3332 10.8667C10.8832 11.2335 10.5 11.9167 9.91683 12.1083C9.33323 12.2999 8.67483 11.9331 8.04163 11.9331C7.40843 11.9331 6.73363 12.2915 6.16683 12.1083C5.60003 11.9247 5.24163 11.2163 4.75003 10.8667C4.25803 10.5167 3.49163 10.3915 3.13323 9.8999C2.77483 9.4079 2.90843 8.6499 2.71683 8.0667C2.52483 7.4831 1.93323 6.9667 1.93323 6.3331C1.93323 5.6995 2.49163 5.1667 2.67483 4.5999C2.85803 4.0331 2.73323 3.2583 3.09163 2.7667C3.45003 2.2751 4.21683 2.1667 4.70843 1.7999C5.20003 1.4331 5.50003 0.749896 6.12483 0.558296C6.75003 0.366296 7.36683 0.733096 8.00003 0.733096C8.63323 0.733096 9.30803 0.374696 9.87523 0.558296C10.4416 0.741496 10.8 1.4499 11.3332 1.7999C11.8664 2.1499 12.5916 2.2747 12.95 2.7667C13.3084 3.2587 13.1752 4.0167 13.3668 4.5999C13.5584 5.1831 14.0668 5.6999 14.0668 6.3331ZM8.00003 3.8331C7.33693 3.8331 6.701 4.09651 6.23212 4.56539C5.76324 5.03427 5.49983 5.6702 5.49983 6.3333C5.49983 6.99639 5.76324 7.63233 6.23212 8.1012C6.701 8.57008 7.33693 8.8335 8.00003 8.8335C8.66307 8.8335 9.29895 8.5701 9.7678 8.10126C10.2366 7.63242 10.5 6.99654 10.5 6.3335C10.5 5.67045 10.2366 5.03457 9.7678 4.56573C9.29895 4.09689 8.66307 3.8331 8.00003 3.8331Z" stroke="#F14336" stroke-width="0.8" stroke-linecap="round" stroke-linejoin="round"/>
    </svg>
    