<svg width="20" height="20" viewBox="0 0 25 22" fill="none" xmlns="http://www.w3.org/2000/svg">
    <path d="M11.9166 20.3346H2.58325C2.11912 20.3346 1.674 20.1503 1.34582 19.8221C1.01763 19.4939 0.833252 19.0488 0.833252 18.5846V3.41797C0.833252 2.95384 1.01763 2.50872 1.34582 2.18053C1.674 1.85234 2.11912 1.66797 2.58325 1.66797H22.4166C22.8807 1.66797 23.3258 1.85234 23.654 2.18053C23.9822 2.50872 24.1666 2.95384 24.1666 3.41797V12.0991" stroke="#FF6934" stroke-width="1.66667" stroke-linecap="round" stroke-linejoin="round"/>
    <path d="M0.833252 3.41797C0.833252 2.95384 1.01763 2.50872 1.34582 2.18053C1.674 1.85234 2.11912 1.66797 2.58325 1.66797H22.4166C22.8807 1.66797 23.3258 1.85234 23.654 2.18053C23.9822 2.50872 24.1666 2.95384 24.1666 3.41797V8.66797H0.833252V3.41797Z" stroke="#FF6934" stroke-width="1.66667"/>
    <path d="M18.3333 16.25L16 18.5833L18.3333 20.9167M21.8333 16.25L24.1667 18.5833L21.8333 20.9167" stroke="#FF6934" stroke-width="1.66667" stroke-linecap="round" stroke-linejoin="round"/>
    <path d="M3.16667 5.16927C3.16667 4.52494 3.689 4.0026 4.33333 4.0026C4.97767 4.0026 5.5 4.52494 5.5 5.16927C5.5 5.8136 4.97767 6.33594 4.33333 6.33594C3.689 6.33594 3.16667 5.8136 3.16667 5.16927Z" fill="#FF6934"/>
    <path d="M6.66667 5.16927C6.66667 4.52494 7.189 4.0026 7.83333 4.0026C8.47767 4.0026 9 4.52494 9 5.16927C9 5.8136 8.47767 6.33594 7.83333 6.33594C7.189 6.33594 6.66667 5.8136 6.66667 5.16927Z" fill="#FF6934"/>
    </svg>
    